<svg xmlns="http://www.w3.org/2000/svg" width="420" height="190" viewBox="0 0 420 190" role="img" aria-labelledby="title desc">
  <title id="title">Nguyen Ho Quang Khai GitHub Stats</title>
  <desc id="desc">Realtime GitHub statistics card for khainhq.</desc>
  <rect x="1" y="1" width="418" height="188" rx="6" fill="#282a36" stroke="#44475a" stroke-width="1"/>
  <g font-family="Segoe UI, Ubuntu, Helvetica Neue, Arial, sans-serif">
    <text x="24" y="34" fill="#f8f8f2" font-size="18" font-weight="700">Nguyen Ho Quang Khai's GitHub Stats</text>
    <text x="28" y="62" fill="#ff5555" font-size="16">☆</text>
    <text x="54" y="62" fill="#f8f8f2" font-size="13" font-weight="700">Total Stars Earned:</text>
    <text x="206" y="62" fill="#f8f8f2" font-size="13" font-weight="700">10</text>
    <text x="28" y="85" fill="#ffb86c" font-size="16">◷</text>
    <text x="54" y="85" fill="#f8f8f2" font-size="13" font-weight="700">Total Commits:</text>
    <text x="206" y="85" fill="#f8f8f2" font-size="13" font-weight="700">374</text>
    <text x="28" y="108" fill="#ff79c6" font-size="16">⑂</text>
    <text x="54" y="108" fill="#f8f8f2" font-size="13" font-weight="700">Total PRs:</text>
    <text x="206" y="108" fill="#f8f8f2" font-size="13" font-weight="700">0</text>
    <text x="28" y="131" fill="#8be9fd" font-size="16">ⓘ</text>
    <text x="54" y="131" fill="#f8f8f2" font-size="13" font-weight="700">Total Issues:</text>
    <text x="206" y="131" fill="#f8f8f2" font-size="13" font-weight="700">0</text>
    <text x="28" y="154" fill="#50fa7b" font-size="16">▣</text>
    <text x="54" y="154" fill="#f8f8f2" font-size="13" font-weight="700">Public Repositories:</text>
    <text x="206" y="154" fill="#f8f8f2" font-size="13" font-weight="700">15</text>
    <text x="28" y="177" fill="#bd93f9" font-size="16">◉</text>
    <text x="54" y="177" fill="#f8f8f2" font-size="13" font-weight="700">Followers:</text>
    <text x="206" y="177" fill="#f8f8f2" font-size="13" font-weight="700">4</text>
    <circle cx="338" cy="102" r="43" fill="#f8f8f2" opacity=".14"/>
    <circle cx="338" cy="102" r="31" fill="#f8f8f2"/>
    <path d="M338 72c-17 0-31 14-31 31 0 14 9 26 22 30 2 0 3-1 3-2v-9c-9 2-11-4-11-4-1-4-3-5-3-5-3-2 0-2 0-2 3 0 5 3 5 3 3 5 8 4 10 3 0-2 1-4 2-5-7-1-15-4-15-15 0-3 1-6 3-8 0-1-1-4 0-8 0 0 3-1 9 3 3-1 5-1 8-1s6 0 8 1c6-4 9-3 9-3 2 4 1 7 0 8 2 2 3 5 3 8 0 11-7 14-15 15 1 1 2 3 2 6v13c0 1 1 2 3 2 13-4 22-16 22-30-3-17-17-31-34-31z" fill="#282a36"/>
  </g>
</svg>
