<svg xmlns="http://www.w3.org/2000/svg" width="420" height="190" viewBox="0 0 420 190" role="img" aria-labelledby="title desc">
  <title id="title">Most Used Languages</title>
  <desc id="desc">Realtime most used repository languages for khainhq.</desc>
  <rect x="1" y="1" width="418" height="188" rx="6" fill="#282a36" stroke="#44475a" stroke-width="1"/>
  <g font-family="Segoe UI, Ubuntu, Helvetica Neue, Arial, sans-serif">
    <text x="24" y="34" fill="#f8f8f2" font-size="18" font-weight="700">Most Used Languages</text>
    <rect x="24" y="56" width="170" height="8" rx="4" fill="#f1e05a"/>
    <rect x="194" y="56" width="75" height="8"  fill="#e34c26"/>
    <rect x="269" y="56" width="60" height="8"  fill="#663399"/>
    <rect x="329" y="56" width="44" height="8"  fill="#178600"/>
    <rect x="373" y="56" width="15" height="8"  fill="#3572A5"/>
    <rect x="388" y="56" width="5" height="8"  fill="#b07219"/>
    <rect x="393" y="56" width="3" height="8"  fill="#f1fa8c"/>
    <rect x="396" y="56" width="1" height="8"  fill="#384d54"/>
    <circle cx="30" cy="87" r="5" fill="#f1e05a"/>
    <text x="44" y="91" fill="#f8f8f2" font-size="12">JavaScript 45.75%</text>
    <circle cx="228" cy="87" r="5" fill="#e34c26"/>
    <text x="242" y="91" fill="#f8f8f2" font-size="12">HTML 20.20%</text>
    <circle cx="30" cy="112" r="5" fill="#663399"/>
    <text x="44" y="116" fill="#f8f8f2" font-size="12">CSS 16.00%</text>
    <circle cx="228" cy="112" r="5" fill="#178600"/>
    <text x="242" y="116" fill="#f8f8f2" font-size="12">C# 11.92%</text>
    <circle cx="30" cy="137" r="5" fill="#3572A5"/>
    <text x="44" y="141" fill="#f8f8f2" font-size="12">Python 3.95%</text>
    <circle cx="228" cy="137" r="5" fill="#b07219"/>
    <text x="242" y="141" fill="#f8f8f2" font-size="12">Java 1.34%</text>
    <circle cx="30" cy="162" r="5" fill="#f1fa8c"/>
    <text x="44" y="166" fill="#f8f8f2" font-size="12">TSQL 0.80%</text>
    <circle cx="228" cy="162" r="5" fill="#384d54"/>
    <text x="242" y="166" fill="#f8f8f2" font-size="12">Dockerfile 0.04%</text>
    <text x="24" y="176" fill="#6272a4" font-size="11">Updated from public GitHub repository data.</text>
  </g>
</svg>
