<svg xmlns="http://www.w3.org/2000/svg" width="420" height="190" viewBox="0 0 420 190" role="img" aria-labelledby="title desc">
  <title id="title">Most Used Languages</title>
  <desc id="desc">Realtime most used repository languages for khainhq.</desc>
  <rect x="1" y="1" width="418" height="188" rx="6" fill="#282a36" stroke="#44475a" stroke-width="1"/>
  <g font-family="Segoe UI, Ubuntu, Helvetica Neue, Arial, sans-serif">
    <text x="24" y="34" fill="#f8f8f2" font-size="18" font-weight="700">Most Used Languages</text>
    <rect x="24" y="56" width="143" height="8" rx="4" fill="#f1e05a"/>
    <rect x="167" y="56" width="86" height="8"  fill="#e34c26"/>
    <rect x="253" y="56" width="86" height="8"  fill="#3572A5"/>
    <rect x="339" y="56" width="57" height="8"  fill="#663399"/>
    <rect x="396" y="56" width="8" height="8"  fill="#3178c6"/>
    <rect x="404" y="56" width="8" height="8"  fill="#b07219"/>
    <rect x="412" y="56" width="8" height="8"  fill="#178600"/>
    <rect x="420" y="56" width="-24" height="8"  fill="#89e051"/>
    <circle cx="30" cy="87" r="5" fill="#f1e05a"/>
    <text x="44" y="91" fill="#f8f8f2" font-size="12">JavaScript 38.46%</text>
    <circle cx="228" cy="87" r="5" fill="#e34c26"/>
    <text x="242" y="91" fill="#f8f8f2" font-size="12">HTML 23.08%</text>
    <circle cx="30" cy="112" r="5" fill="#3572A5"/>
    <text x="44" y="116" fill="#f8f8f2" font-size="12">Python 23.08%</text>
    <circle cx="228" cy="112" r="5" fill="#663399"/>
    <text x="242" y="116" fill="#f8f8f2" font-size="12">CSS 15.38%</text>
    <circle cx="30" cy="137" r="5" fill="#3178c6"/>
    <text x="44" y="141" fill="#f8f8f2" font-size="12">TypeScript 0.00%</text>
    <circle cx="228" cy="137" r="5" fill="#b07219"/>
    <text x="242" y="141" fill="#f8f8f2" font-size="12">Java 0.00%</text>
    <circle cx="30" cy="162" r="5" fill="#178600"/>
    <text x="44" y="166" fill="#f8f8f2" font-size="12">C# 0.00%</text>
    <circle cx="228" cy="162" r="5" fill="#89e051"/>
    <text x="242" y="166" fill="#f8f8f2" font-size="12">Shell 0.00%</text>
    <text x="24" y="176" fill="#6272a4" font-size="11">Updated from public GitHub repository data.</text>
  </g>
</svg>
