<svg xmlns="http://www.w3.org/2000/svg" width="420" height="190" viewBox="0 0 420 190" role="img" aria-labelledby="title desc">
  <title id="title">Most Used Languages</title>
  <desc id="desc">Repository language statistics generated from the GitHub API.</desc>
  <rect x="1" y="1" width="418" height="188" rx="6" fill="#282a36" stroke="#44475a" stroke-width="1"/>
  <g font-family="Segoe UI, Ubuntu, Helvetica Neue, Arial, sans-serif">
    <text x="24" y="36" fill="#f8f8f2" font-size="18" font-weight="700">Most Used Languages</text>
    <rect x="24" y="56" width="168" height="8" fill="#f1e05a"/><rect x="192" y="56" width="75" height="8" fill="#e34c26"/><rect x="267" y="56" width="59" height="8" fill="#663399"/><rect x="326" y="56" width="44" height="8" fill="#178600"/><rect x="370" y="56" width="18" height="8" fill="#3572A5"/><rect x="388" y="56" width="5" height="8" fill="#b07219"/><rect x="393" y="56" width="3" height="8" fill="#f1fa8c"/><rect x="396" y="56" width="1" height="8" fill="#384d54"/>
    <circle cx="30" cy="88" r="5" fill="#f1e05a"/><text x="44" y="92" fill="#f8f8f2" font-size="12">JavaScript 45.1%</text><circle cx="228" cy="88" r="5" fill="#e34c26"/><text x="242" y="92" fill="#f8f8f2" font-size="12">HTML 20.1%</text><circle cx="30" cy="113" r="5" fill="#663399"/><text x="44" y="117" fill="#f8f8f2" font-size="12">CSS 15.9%</text><circle cx="228" cy="113" r="5" fill="#178600"/><text x="242" y="117" fill="#f8f8f2" font-size="12">C# 11.9%</text><circle cx="30" cy="138" r="5" fill="#3572A5"/><text x="44" y="142" fill="#f8f8f2" font-size="12">Python 4.9%</text><circle cx="228" cy="138" r="5" fill="#b07219"/><text x="242" y="142" fill="#f8f8f2" font-size="12">Java 1.3%</text><circle cx="30" cy="163" r="5" fill="#f1fa8c"/><text x="44" y="167" fill="#f8f8f2" font-size="12">TSQL 0.8%</text><circle cx="228" cy="163" r="5" fill="#384d54"/><text x="242" y="167" fill="#f8f8f2" font-size="12">Dockerfile 0.0%</text>
  </g>
</svg>
